<?xml version="1.0" encoding="UTF-8" standalone="no"?>
<!-- Created with Inkscape (http://www.inkscape.org/) -->
<svg
   xmlns:dc="http://purl.org/dc/elements/1.1/"
   xmlns:cc="http://creativecommons.org/ns#"
   xmlns:rdf="http://www.w3.org/1999/02/22-rdf-syntax-ns#"
   xmlns:svg="http://www.w3.org/2000/svg"
   xmlns="http://www.w3.org/2000/svg"
   xmlns:sodipodi="http://sodipodi.sourceforge.net/DTD/sodipodi-0.dtd"
   xmlns:inkscape="http://www.inkscape.org/namespaces/inkscape"
   width="1052.3622"
   height="744.09448"
   id="svg2"
   sodipodi:version="0.32"
   inkscape:version="0.45+0.46pre2"
   version="1.0"
   sodipodi:docbase="c:\temp"
   sodipodi:docname="film_holder.svg"
   inkscape:output_extension="org.inkscape.output.svg.inkscape">
  <sodipodi:namedview
     id="base"
     pagecolor="#ffffff"
     bordercolor="#666666"
     borderopacity="1.0"
     gridtolerance="10000"
     guidetolerance="10"
     objecttolerance="10"
     inkscape:pageopacity="0.0"
     inkscape:pageshadow="2"
     inkscape:zoom="0.70152381"
     inkscape:cx="526.18109"
     inkscape:cy="372.04724"
     inkscape:document-units="px"
     inkscape:current-layer="layer3"
     width="1052.3622px"
     height="744.09448px"
     inkscape:window-width="1280"
     inkscape:window-height="731"
     inkscape:window-x="211"
     inkscape:window-y="198"
     showgrid="false" />
  <defs
     id="defs4">
    <marker
       inkscape:stockid="Arrow2Lend"
       orient="auto"
       refY="0.0"
       refX="0.0"
       id="Arrow2Lend"
       style="overflow:visible;">
      <path
         id="path4070"
         style="font-size:12.0;fill-rule:evenodd;stroke-width:0.62500000;stroke-linejoin:round;"
         d="M 8.7185878,4.0337352 L -2.2072895,0.016013256 L 8.7185884,-4.0017078 C 6.9730900,-1.6296469 6.9831476,1.6157441 8.7185878,4.0337352 z "
         transform="scale(1.1) rotate(180) translate(1,0)" />
    </marker>
    <marker
       inkscape:stockid="Arrow1Mend"
       orient="auto"
       refY="0.0"
       refX="0.0"
       id="Arrow1Mend"
       style="overflow:visible;">
      <path
         id="path4058"
         d="M 0.0,0.0 L 5.0,-5.0 L -12.5,0.0 L 5.0,5.0 L 0.0,0.0 z "
         style="fill-rule:evenodd;stroke:#000000;stroke-width:1.0pt;marker-start:none;"
         transform="scale(0.4) rotate(180) translate(10,0)" />
    </marker>
    <marker
       inkscape:stockid="Arrow1Mstart"
       orient="auto"
       refY="0.0"
       refX="0.0"
       id="Arrow1Mstart"
       style="overflow:visible">
      <path
         id="path4055"
         d="M 0.0,0.0 L 5.0,-5.0 L -12.5,0.0 L 5.0,5.0 L 0.0,0.0 z "
         style="fill-rule:evenodd;stroke:#000000;stroke-width:1.0pt;marker-start:none"
         transform="scale(0.4) translate(10,0)" />
    </marker>
    <inkscape:perspective
       sodipodi:type="inkscape:persp3d"
       inkscape:vp_x="-50 : 600 : 1"
       inkscape:vp_y="0 : 1000 : 0"
       inkscape:vp_z="700 : 600 : 1"
       inkscape:persp3d-origin="300 : 400 : 1"
       id="perspective3243" />
    <inkscape:perspective
       sodipodi:type="inkscape:persp3d"
       inkscape:vp_x="-50 : 600 : 1"
       inkscape:vp_y="0 : 1000 : 0"
       inkscape:vp_z="700 : 600 : 1"
       inkscape:persp3d-origin="300 : 400 : 1"
       id="perspective2529" />
    <inkscape:perspective
       id="perspective3154"
       inkscape:persp3d-origin="300 : 400 : 1"
       inkscape:vp_z="700 : 600 : 1"
       inkscape:vp_y="0 : 1000 : 0"
       inkscape:vp_x="-50 : 600 : 1"
       sodipodi:type="inkscape:persp3d" />
    <inkscape:perspective
       id="perspective2553"
       inkscape:persp3d-origin="300 : 400 : 1"
       inkscape:vp_z="700 : 600 : 1"
       inkscape:vp_y="0 : 1000 : 0"
       inkscape:vp_x="-50 : 600 : 1"
       sodipodi:type="inkscape:persp3d" />
  </defs>
  <metadata
     id="metadata7">
    <rdf:RDF>
      <cc:Work
         rdf:about="">
        <dc:format>image/svg+xml</dc:format>
        <dc:type
           rdf:resource="http://purl.org/dc/dcmitype/StillImage" />
      </cc:Work>
    </rdf:RDF>
  </metadata>
  <g
     id="layer1"
     inkscape:groupmode="layer"
     inkscape:label="Layer 1"
     style="display:inline">
    <path
       style="fill:#666666;fill-rule:evenodd;stroke:#000000;stroke-width:1px;stroke-linecap:butt;stroke-linejoin:miter;stroke-opacity:1"
       d="M 261.84757,520.4056 L 407.90325,520.4056 L 407.90325,532.24796 L 435.53541,532.24796 L 435.53541,551.98521 L 259.87384,551.98521 L 275.66365,542.11658 L 250.00522,538.16913 L 277.63738,530.27423 L 261.84757,520.4056 z"
       id="path1878" />
    <path
       id="path1880"
       d="M 733.56795,520.4056 L 587.51227,520.4056 L 587.51227,532.24796 L 559.88011,532.24796 L 559.88011,551.98521 L 735.54167,551.98521 L 719.75187,542.11658 L 745.4103,538.16913 L 717.77814,530.27423 L 733.56795,520.4056 z"
       style="fill:#666666;fill-rule:evenodd;stroke:#000000;stroke-width:1px;stroke-linecap:butt;stroke-linejoin:miter;stroke-opacity:1" />
    <path
       sodipodi:nodetypes="ccccc"
       id="path1884"
       d="M 661.57547,212.1466 L 703.10103,212.1466 L 703.10103,215.51354 L 710.95721,215.51354 L 710.95721,221.1251"
       style="fill:none;fill-rule:evenodd;stroke:#000000;stroke-width:0.28431317px;stroke-linecap:butt;stroke-linejoin:miter;stroke-opacity:1" />
    <path
       sodipodi:nodetypes="cccccccccc"
       style="fill:none;fill-rule:evenodd;stroke:#000000;stroke-width:0.28431317px;stroke-linecap:butt;stroke-linejoin:miter;stroke-opacity:1"
       d="M 752.51885,215.51354 L 746.31005,215.51354 M 795.69179,212.1466 L 754.16624,212.1466 M 794.59948,217.89344 L 798.78815,217.12936 L 794.86006,216.00705 M 793.88002,221.1251 L 796.25295,221.1251 L 794.21126,219.78984"
       id="path1886" />
    <path
       sodipodi:nodetypes="cccccccccc"
       id="path1888"
       d="M 710.53384,215.50097 L 435.14341,531.65722 L 435.17466,531.65722 L 435.51841,532.00097 L 435.89341,532.34472 L 435.89341,532.31347 L 436.79966,531.43847 L 436.70591,531.37597 L 710.87798,215.68371 L 710.53384,215.50097 z"
       style="fill:#000000;fill-opacity:1;fill-rule:evenodd;stroke:none;stroke-width:0.99862915px;stroke-linecap:butt;stroke-linejoin:miter;stroke-opacity:1" />
    <path
       sodipodi:nodetypes="ccccc"
       id="path1890"
       d="M 710.9761,220.8028 L 435.33091,551.25097 L 436.08091,551.87597 L 711.08091,221.15722 L 710.9761,220.8028 z"
       style="fill:#000000;fill-opacity:1;fill-rule:evenodd;stroke:none;stroke-width:0.99810541px;stroke-linecap:butt;stroke-linejoin:miter;stroke-opacity:1" />
    <path
       sodipodi:nodetypes="ccccc"
       id="path1892"
       d="M 703.16399,215.2403 L 407.58091,531.71972 L 408.33091,532.40722 L 703.30519,215.62597 L 703.16399,215.2403 z"
       style="fill:#000000;fill-opacity:1;fill-rule:evenodd;stroke:none;stroke-width:1.00108922px;stroke-linecap:butt;stroke-linejoin:miter;stroke-opacity:1" />
    <path
       sodipodi:nodetypes="ccccc"
       id="path1894"
       d="M 702.94524,212.1414 L 407.64341,519.90722 L 408.39341,520.59472 L 703.12283,212.49068 L 702.94524,212.1414 z"
       style="fill:#000000;fill-opacity:1;fill-rule:evenodd;stroke:none;stroke-width:0.99793249px;stroke-linecap:butt;stroke-linejoin:miter;stroke-opacity:1" />
    <path
       sodipodi:nodetypes="ccccc"
       id="path1947"
       d="M 661.45591,211.96972 L 260.98716,519.84472 L 261.61216,520.62597 L 661.91438,212.14218 L 661.45591,211.96972 z"
       style="fill:#000000;fill-opacity:1;fill-rule:evenodd;stroke:none;stroke-width:1px;stroke-linecap:butt;stroke-linejoin:miter;stroke-opacity:1" />
    <path
       sodipodi:nodetypes="ccccc"
       id="path1973"
       d="M 746.28899,215.33405 L 559.42466,532.09472 L 560.29966,532.59472 L 746.48755,215.63111 L 746.28899,215.33405 z"
       style="fill:#000000;fill-opacity:1;fill-rule:evenodd;stroke:none;stroke-width:1.00582361px;stroke-linecap:butt;stroke-linejoin:miter;stroke-opacity:1" />
    <g
       id="g3245"
       transform="translate(94.080912,-111.18653)">
      <path
         style="fill:#000000;fill-opacity:1;fill-rule:evenodd;stroke:none;stroke-width:1.00032628px;stroke-linecap:butt;stroke-linejoin:miter;stroke-opacity:1"
         d="M 701.84375,323.15625 L 701.40625,323.34375 L 639.84375,631.375 L 640.8125,631.5625 L 701.84375,323.15625 z M 660.0625,323.25 L 493.15625,631 L 494.03125,631.46875 L 660.40625,323.46875 L 660.0625,323.25 z"
         id="path1975" />
    </g>
    <path
       style="fill:#ebe4e4;fill-opacity:1"
       d="M 589.18516,519.35429 C 589.18516,519.1332 626.4179,450.01738 671.92458,365.76357 L 754.66401,212.57482 L 774.9709,212.5719 C 794.02363,212.56917 795.25861,212.63486 794.96706,213.63561 C 794.79616,214.22225 781.04817,282.8594 764.41598,366.16261 C 747.7838,449.46582 734.03581,518.10297 733.86491,518.68962 C 733.57122,519.6977 729.5921,519.75624 661.36966,519.75624 C 621.66818,519.75624 589.18516,519.57536 589.18516,519.35427 L 589.18516,519.35429 z"
       id="path4020" />
    <path
       style="fill:#ebe4e4;fill-opacity:1"
       d="M 561.93461,530.57484 C 562.10365,530.15581 603.65751,459.32446 654.27652,373.17184 L 746.31112,216.53073 L 748.81143,216.34331 C 750.18662,216.24023 751.31176,216.26699 751.31176,216.40279 C 751.31176,216.53859 714.28656,284.91723 669.03354,368.35534 L 586.75533,520.06099 L 586.75124,525.69885 L 586.74716,531.33671 L 574.18724,531.33671 C 564.38172,531.33671 561.6947,531.16963 561.93462,530.57484 L 561.93461,530.57484 z"
       id="path4022" />
    <path
       style="fill:#ebe4e4;fill-opacity:1"
       d="M 282.74157,512.15185 L 282.91215,504.60845 L 472.42585,358.55825 L 661.93954,212.50804 L 682.01025,212.50804 L 702.08092,212.50804 L 696.71782,218.1459 C 693.76811,221.24672 627.46919,290.36385 549.3869,371.73952 L 407.41908,519.69529 L 344.99504,519.69529 L 282.57098,519.69529 L 282.74157,512.15185 z"
       id="path4024" />
    <path
       style="fill:#ebe4e4;fill-opacity:1"
       d="M 412.81535,528.07589 C 414.46512,526.31597 480.48643,455.41605 559.52938,370.52053 L 703.24385,216.16503 L 706.3092,216.16503 L 709.37459,216.16503 L 707.63936,218.28849 C 706.68498,219.45639 645.01522,290.33812 570.59545,375.80344 L 435.28678,531.19492 L 422.55127,531.23536 L 409.81577,531.27576 L 412.81535,528.07589 z"
       id="path4026" />
    <path
       style="fill:#808080;fill-opacity:1"
       d="M 436.33674,540.91879 L 436.50578,532.08645 L 572.7287,375.25528 C 647.6513,288.99814 709.28574,217.9981 709.69411,217.47742 C 710.31631,216.6841 710.43974,216.88452 710.45598,218.71456 C 710.47707,221.09043 725.28605,203.17568 506.76952,465.1185 L 436.1677,549.75116 L 436.33674,540.91879 z"
       id="path4028" />
    <path
       style="fill:#808080;fill-opacity:1"
       d=""
       id="path4032" />
    <path
       style="fill:#666666;fill-opacity:1"
       d="M 408.8955,525.19119 L 408.8955,520.53186 L 555.61822,367.14824 C 636.31571,282.78726 702.44737,214.08392 702.57745,214.47417 C 702.70754,214.86442 701.722,216.32333 700.38738,217.71619 C 699.05275,219.10904 633.71108,289.09152 555.18366,373.23279 C 476.65622,457.37407 411.61654,527.03447 410.65101,528.0337 L 408.8955,529.85048 L 408.8955,525.19119 z"
       id="path4034" />
  </g>
  <g
     inkscape:groupmode="layer"
     id="layer2"
     inkscape:label="film"
     style="display:inline">
    <g
       id="g2613"
       transform="translate(94.080912,-111.18653)">
      <g
         id="g3205">
        <path
           style="fill:#bebebe;fill-opacity:0.70531401;fill-rule:evenodd;stroke:#000000;stroke-width:0.70981449px;stroke-linecap:butt;stroke-linejoin:miter;stroke-opacity:1"
           d="M 611.8125,324.84375 C 611.8125,324.84375 323.78124,631.68753 323.78125,631.6875 C 323.78125,631.6875 488.75002,631.6875 488.75,631.6875 C 488.75,631.6875 657.21874,324.84374 657.21875,324.84375 C 657.21875,324.84375 611.81251,324.84374 611.8125,324.84375 z M 615.5625,327.5 C 615.56247,327.50001 620.40625,327.5 620.40625,327.5 C 621.19773,327.50572 621.90632,327.57728 621.6875,327.71875 C 621.68749,327.71875 620.78125,328.78125 620.78125,328.78125 C 620.75417,328.844 620.53177,328.93097 619.9375,328.96875 C 619.93751,328.96876 614.4375,328.96875 614.4375,328.96875 C 613.83744,328.96437 613.26028,328.90527 613.28125,328.8125 C 613.28126,328.8125 614.3125,327.65625 614.3125,327.65625 C 614.45845,327.56062 614.97528,327.51851 615.5625,327.5 z M 611.75,331.75 C 611.75002,331.75 616.78125,331.75 616.78125,331.75 C 617.60145,331.75614 618.32506,331.848 618.09375,332 C 618.09373,331.99999 617.125,333.15625 617.125,333.15625 C 617.09487,333.22372 616.86747,333.30312 616.25,333.34375 C 616.25,333.34376 610.5625,333.34375 610.5625,333.34375 C 609.94044,333.33905 609.31879,333.256 609.34375,333.15625 C 609.34377,333.15626 610.46875,331.9375 610.46875,331.9375 C 610.62331,331.83474 611.14071,331.76989 611.75,331.75 z M 607.65625,336.3125 C 607.65626,336.3125 612.875,336.3125 612.875,336.3125 C 613.72611,336.3191 614.49512,336.43 614.25,336.59375 C 614.25,336.59376 613.1875,337.8125 613.1875,337.8125 C 613.15396,337.88523 612.9238,337.98744 612.28125,338.03125 C 612.28123,338.03125 606.375,338.03125 606.375,338.03125 C 605.72917,338.02618 605.09549,337.9513 605.125,337.84375 C 605.12503,337.84375 606.3125,336.5 606.3125,336.5 C 606.47656,336.38932 607.02318,336.33393 607.65625,336.3125 z M 603.25,341.25 C 603.24998,341.25002 608.65625,341.25 608.65625,341.25 C 609.54062,341.25713 610.35417,341.35433 610.09375,341.53125 C 610.09374,341.53125 608.9375,342.875 608.9375,342.875 C 608.90011,342.95365 608.63849,343.07761 607.96875,343.125 C 607.96872,343.12501 601.84375,343.125 601.84375,343.125 C 601.17236,343.11953 600.49654,343.02255 600.53125,342.90625 C 600.53123,342.90626 601.84375,341.46875 601.84375,341.46875 C 602.01839,341.34915 602.59121,341.27316 603.25,341.25 z M 598.46875,346.59375 C 598.46877,346.59376 604.09375,346.59375 604.09375,346.59375 C 605.01414,346.60147 605.83996,346.7145 605.5625,346.90625 C 605.56252,346.90625 604.34375,348.375 604.34375,348.375 C 604.30195,348.46034 604.01183,348.54234 603.3125,348.59375 C 603.31249,348.59376 596.9375,348.59375 596.9375,348.59375 C 596.23836,348.58779 595.55305,348.50116 595.59375,348.375 C 595.59376,348.37501 597,346.8125 597,346.8125 C 597.18641,346.6829 597.78206,346.61886 598.46875,346.59375 z M 593.28125,352.40625 C 593.28126,352.40625 599.15625,352.40625 599.15625,352.40625 C 600.11566,352.41462 600.98402,352.51024 600.6875,352.71875 C 600.68751,352.71875 599.34375,354.3125 599.34375,354.3125 C 599.29691,354.40536 599.01289,354.53777 598.28125,354.59375 C 598.28122,354.59373 591.59375,354.59375 591.59375,354.59375 C 590.86453,354.58728 590.17113,354.48109 590.21875,354.34375 C 590.21875,354.34375 591.75,352.625 591.75,352.625 C 591.94958,352.48407 592.5642,352.43355 593.28125,352.40625 z M 587.625,358.71875 C 587.62501,358.71876 593.78125,358.71875 593.78125,358.71875 C 594.78318,358.72787 595.66171,358.83492 595.34375,359.0625 C 595.34375,359.0625 593.90625,360.8125 593.90625,360.8125 C 593.85357,360.914 593.51707,361.03257 592.75,361.09375 C 592.74999,361.09374 585.78125,361.09375 585.78125,361.09375 C 585.01923,361.0867 584.2881,360.99382 584.34375,360.84375 C 584.34376,360.84376 586.03125,358.96875 586.03125,358.96875 C 586.2457,358.81494 586.87478,358.74855 587.625,358.71875 z M 581.46875,365.625 C 581.46877,365.62501 587.875,365.625 587.875,365.625 C 588.92338,365.63498 589.87345,365.75061 589.53125,366 C 589.53125,365.99999 587.9375,367.90625 587.9375,367.90625 C 587.87812,368.01758 587.52484,368.18286 586.71875,368.25 C 586.71875,368.25001 579.40625,368.21875 579.40625,368.21875 C 578.60827,368.21102 577.84122,368.10215 577.90625,367.9375 C 577.90622,367.93751 579.75,365.90625 579.75,365.90625 C 579.98134,365.73771 580.68215,365.65766 581.46875,365.625 z M 574.6875,373.1875 C 574.68751,373.18749 581.40625,373.21875 581.40625,373.21875 C 582.50561,373.22973 583.49479,373.35052 583.125,373.625 C 583.12502,373.62501 581.375,375.71875 581.375,375.71875 C 581.30777,375.84147 580.94302,376.01974 580.09375,376.09375 C 580.09374,376.09375 572.40625,376.09375 572.40625,376.09375 C 571.56886,376.08525 570.7677,375.96271 570.84375,375.78125 C 570.84376,375.78126 572.875,373.53125 572.875,373.53125 C 573.12553,373.34576 573.86083,373.22345 574.6875,373.1875 z M 567.1875,381.5625 C 567.1875,381.56251 574.28125,381.5625 574.28125,381.5625 C 575.43679,381.57462 576.46391,381.72767 576.0625,382.03125 C 576.0625,382.03125 574.125,384.34375 574.125,384.34375 C 574.04854,384.47964 573.64732,384.66799 572.75,384.75 C 572.74999,384.75001 564.6875,384.75 564.6875,384.75 C 563.80654,384.74059 562.94217,384.60724 563.03125,384.40625 C 563.03126,384.40624 565.3125,381.90625 565.3125,381.90625 C 565.585,381.70111 566.31645,381.60226 567.1875,381.5625 z M 558.90625,390.84375 C 558.90624,390.84376 566.375,390.84375 566.375,390.84375 C 567.59274,390.85724 568.65666,391.03746 568.21875,391.375 C 568.21877,391.375 566.0625,393.9375 566.0625,393.9375 C 565.97517,394.08885 565.54484,394.28365 564.59375,394.375 C 564.59374,394.37499 556.0625,394.375 556.0625,394.375 C 555.13319,394.36452 554.27039,394.22384 554.375,394 C 554.37501,394 556.875,391.21875 556.875,391.21875 C 557.173,390.99065 557.9858,390.88796 558.90625,390.84375 z M 549.65625,401.1875 C 549.65623,401.18749 557.5625,401.1875 557.5625,401.1875 C 558.84958,401.20255 559.98041,401.40371 559.5,401.78125 C 559.50001,401.78124 557.0625,404.65625 557.0625,404.65625 C 556.96216,404.82583 556.51167,405.05385 555.5,405.15625 C 555.49999,405.15624 546.46875,405.15625 546.46875,405.15625 C 545.48545,405.14452 544.56422,404.96959 544.6875,404.71875 C 544.68751,404.71875 547.5,401.625 547.5,401.625 C 547.82769,401.36987 548.68046,401.23696 549.65625,401.1875 z M 539.28125,412.78125 C 539.28127,412.78126 547.6875,412.78125 547.6875,412.78125 C 549.05225,412.79819 550.21782,413.0124 549.6875,413.4375 C 549.6875,413.4375 546.9375,416.6875 546.9375,416.6875 C 546.82151,416.87886 546.33045,417.13442 545.25,417.25 C 545.24999,417.25 535.65625,417.25 535.65625,417.25 C 534.61238,417.23677 533.66657,417.03303 533.8125,416.75 C 533.81251,416.75001 536.96875,413.28125 536.96875,413.28125 C 537.33144,412.99402 538.24307,412.83694 539.28125,412.78125 z M 527.5625,425.875 C 527.56251,425.875 536.5,425.875 536.5,425.875 C 537.95242,425.89418 539.18335,426.174 538.59375,426.65625 C 538.59376,426.65625 535.5,430.34375 535.5,430.34375 C 535.36497,430.56132 534.81542,430.83729 533.65625,430.96875 C 533.65623,430.96875 523.4375,430.96875 523.4375,430.96875 C 522.32509,430.95372 521.29506,430.72809 521.46875,430.40625 C 521.46873,430.40626 525.0625,426.4375 525.0625,426.4375 C 525.46675,426.11168 526.45342,425.93817 527.5625,425.875 z M 514.21875,440.8125 C 514.21876,440.81249 523.78125,440.8125 523.78125,440.8125 C 525.33336,440.83442 526.62955,441.13574 525.96875,441.6875 C 525.96873,441.68751 522.40625,445.90625 522.40625,445.90625 C 522.24772,446.15582 521.65642,446.47414 520.40625,446.625 C 520.40628,446.625 509.4375,446.625 509.4375,446.625 C 508.24685,446.60779 507.19808,446.36921 507.40625,446 C 507.40624,446.00001 511.5,441.4375 511.5,441.4375 C 511.95429,441.06476 513.0284,440.88477 514.21875,440.8125 z M 498.875,457.96875 C 498.87499,457.96876 509.125,457.96875 509.125,457.96875 C 510.79148,457.99401 512.18502,458.33132 511.4375,458.96875 C 511.43749,458.96876 507.34375,463.875 507.34375,463.875 C 507.15586,464.1642 506.4815,464.54385 505.125,464.71875 C 505.12499,464.71876 493.3125,464.71875 493.3125,464.71875 C 492.03184,464.6988 490.90468,464.39661 491.15625,463.96875 C 491.15625,463.96874 495.90625,458.6875 495.90625,458.6875 C 496.42156,458.25691 497.59058,458.05223 498.875,457.96875 z M 481.0625,477.90625 C 481.06251,477.90624 492.15625,477.90625 492.15625,477.90625 C 493.95532,477.93573 495.41728,478.31775 494.5625,479.0625 C 494.56249,479.06249 489.75,484.78125 489.75,484.78125 C 489.52476,485.12031 488.76363,485.57609 487.28125,485.78125 C 487.28124,485.78125 474.53125,485.78125 474.53125,485.78125 C 473.14581,485.7579 471.91167,485.40795 472.21875,484.90625 C 472.21876,484.90626 477.8125,478.75 477.8125,478.75 C 478.40346,478.24698 479.66792,478.00376 481.0625,477.90625 z M 460.125,501.3125 C 460.12501,501.31251 472.1875,501.3125 472.1875,501.3125 C 474.14205,501.34733 475.70865,501.80589 474.71875,502.6875 C 474.71876,502.68749 469,509.5 469,509.5 C 468.7264,509.90302 467.88367,510.41224 466.25,510.65625 C 466.24999,510.65625 452.3125,510.65625 452.3125,510.65625 C 450.80364,510.6285 449.52679,510.22144 449.90625,509.625 C 449.90626,509.62501 456.5,502.3125 456.5,502.3125 C 457.18641,501.71711 458.59968,501.42791 460.125,501.3125 z M 435.125,529.25 C 435.125,529.25001 448.375,529.25 448.375,529.25 C 450.51446,529.2918 452.19501,529.84625 451.03125,530.90625 C 451.03126,530.90626 444.125,539.09375 444.125,539.09375 C 443.78734,539.58072 442.81883,540.20497 441,540.5 C 440.99999,540.49998 425.6875,540.5 425.6875,540.5 C 424.0311,540.4665 422.64906,539.97077 423.125,539.25 C 423.12501,539.24998 431.09375,530.4375 431.09375,530.4375 C 431.90322,529.72175 433.44202,529.38872 435.125,529.25 z M 404.84375,563.09375 C 404.84376,563.09373 419.5,563.09375 419.5,563.09375 C 421.86297,563.14488 423.64329,563.82646 422.25,565.125 C 422.24999,565.12501 413.8125,575.21875 413.8125,575.21875 C 413.38766,575.81888 412.20669,576.60485 410.15625,576.96875 C 410.15626,576.96873 393.15625,576.96875 393.15625,576.96875 C 391.32035,576.92745 389.86063,576.29472 390.46875,575.40625 C 390.46875,575.40624 400.25,564.59375 400.25,564.59375 C 401.22223,563.71709 402.96697,563.2636 404.84375,563.09375 z M 367.34375,605.03125 C 367.34376,605.03127 383.75,605.03125 383.75,605.03125 C 386.38864,605.09521 388.33088,605.96604 386.625,607.59375 C 386.62499,607.59377 375.96875,620.25 375.96875,620.25 C 375.42122,621.00791 374.03566,622.00875 371.6875,622.46875 C 371.68749,622.46877 352.53125,622.46875 352.53125,622.46875 C 350.47219,622.41661 348.89226,621.65355 349.6875,620.53125 C 349.68751,620.53128 362,606.90625 362,606.90625 C 363.19427,605.80758 365.22308,605.24403 367.34375,605.03125 z"
           id="path2555" />
      </g>
    </g>
    <path
       style="fill:#bebebe;fill-opacity:0.70531401;fill-rule:evenodd;stroke:#000000;stroke-width:1px;stroke-linecap:butt;stroke-linejoin:miter;stroke-opacity:1"
       d="M 418.77267,520.70155 L 418.77267,528.65318 L 582.66469,528.65318 L 582.66469,520.70155"
       id="path3201"
       sodipodi:nodetypes="cccc" />
    <path
       style="fill:none;fill-rule:evenodd;stroke:#000000;stroke-width:1px;stroke-linecap:butt;stroke-linejoin:miter;stroke-opacity:1"
       d="M 583.10645,528.65318 L 588.40754,517.60925 L 588.40754,517.60925"
       id="path3203" />
  </g>
  <g
     inkscape:groupmode="layer"
     id="layer3"
     inkscape:label="cover"
     style="display:inline">
    <path
       style="fill:#adafd0;fill-opacity:0.70531401;fill-rule:evenodd;stroke:#000000;stroke-width:1px;stroke-linecap:butt;stroke-linejoin:miter;stroke-opacity:1"
       d="M 342.17574,518.32178 L 664.90927,517.27053 L 677.52427,487.83555 L 374.76447,487.83555 L 342.17574,518.32178 z"
       id="path3403"
       sodipodi:nodetypes="ccccc" />
    <path
       style="fill:#adafd0;fill-opacity:0.70531401;fill-rule:evenodd;stroke:#000000;stroke-width:1px;stroke-linecap:butt;stroke-linejoin:miter;stroke-opacity:1"
       d="M 767.9317,226.07448 L 665.52508,226.44615 L 679.62676,213.45949 L 773.68716,212.71614 L 767.9317,226.07448 z"
       id="path3405"
       sodipodi:nodetypes="ccccc" />
    <path
       style="fill:#adafd0;fill-opacity:0.70531401;fill-rule:evenodd;stroke:#000000;stroke-width:1px;stroke-linecap:butt;stroke-linejoin:miter;stroke-opacity:1"
       d="M 467.27441,483.63055 L 695.30985,228.0185 L 662.59358,228.0185 L 378.96947,483.63055 L 467.27441,483.63055 z"
       id="path3407"
       sodipodi:nodetypes="ccccc" />
    <path
       style="fill:#adafd0;fill-opacity:0.70531401;fill-rule:evenodd;stroke:#000000;stroke-width:1px;stroke-linecap:butt;stroke-linejoin:miter;stroke-opacity:1"
       d="M 579.85719,482.00882 L 677.9788,482.00881 L 767.92361,228.528 L 736.7031,228.528 L 579.85719,482.00882 z"
       id="path3409"
       sodipodi:nodetypes="ccccc" />
  </g>
</svg>
