<?xml version="1.0" encoding="UTF-8" standalone="no"?>
<!-- Created with Inkscape (http://www.inkscape.org/) -->
<svg
   xmlns:dc="http://purl.org/dc/elements/1.1/"
   xmlns:cc="http://creativecommons.org/ns#"
   xmlns:rdf="http://www.w3.org/1999/02/22-rdf-syntax-ns#"
   xmlns:svg="http://www.w3.org/2000/svg"
   xmlns="http://www.w3.org/2000/svg"
   xmlns:sodipodi="http://sodipodi.sourceforge.net/DTD/sodipodi-0.dtd"
   xmlns:inkscape="http://www.inkscape.org/namespaces/inkscape"
   width="1052.3622"
   height="744.09448"
   id="svg2"
   sodipodi:version="0.32"
   inkscape:version="0.45+0.46pre2"
   version="1.0"
   sodipodi:docbase="c:\temp"
   sodipodi:docname="film_holder.svg"
   inkscape:output_extension="org.inkscape.output.svg.inkscape">
  <sodipodi:namedview
     id="base"
     pagecolor="#ffffff"
     bordercolor="#666666"
     borderopacity="1.0"
     gridtolerance="10000"
     guidetolerance="10"
     objecttolerance="10"
     inkscape:pageopacity="0.0"
     inkscape:pageshadow="2"
     inkscape:zoom="0.92868989"
     inkscape:cx="390.66234"
     inkscape:cy="346.38881"
     inkscape:document-units="px"
     inkscape:current-layer="layer1"
     width="1052.3622px"
     height="744.09448px"
     inkscape:window-width="853"
     inkscape:window-height="719"
     inkscape:window-x="89"
     inkscape:window-y="137"
     showgrid="false" />
  <defs
     id="defs4">
    <inkscape:perspective
       id="perspective3154"
       inkscape:persp3d-origin="300 : 400 : 1"
       inkscape:vp_z="700 : 600 : 1"
       inkscape:vp_y="0 : 1000 : 0"
       inkscape:vp_x="-50 : 600 : 1"
       sodipodi:type="inkscape:persp3d" />
    <inkscape:perspective
       id="perspective2553"
       inkscape:persp3d-origin="300 : 400 : 1"
       inkscape:vp_z="700 : 600 : 1"
       inkscape:vp_y="0 : 1000 : 0"
       inkscape:vp_x="-50 : 600 : 1"
       sodipodi:type="inkscape:persp3d" />
  </defs>
  <metadata
     id="metadata7">
    <rdf:RDF>
      <cc:Work
         rdf:about="">
        <dc:format>image/svg+xml</dc:format>
        <dc:type
           rdf:resource="http://purl.org/dc/dcmitype/StillImage" />
      </cc:Work>
    </rdf:RDF>
  </metadata>
  <g
     id="layer1"
     inkscape:groupmode="layer"
     inkscape:label="Layer 1">
    <path
       id="path1872"
       d="M 88.817644,132.2396 L 234.87332,132.2396 L 234.87332,144.08196 L 262.50548,144.08196 L 262.50548,163.81921 L 86.843918,163.81921 L 102.63372,153.95058 L 76.975291,150.00313 L 104.60745,142.10823 L 88.817644,132.2396 z "
       style="fill:none;fill-rule:evenodd;stroke:black;stroke-width:1px;stroke-linecap:butt;stroke-linejoin:miter;stroke-opacity:1" />
    <path
       style="fill:none;fill-rule:evenodd;stroke:black;stroke-width:1px;stroke-linecap:butt;stroke-linejoin:miter;stroke-opacity:1"
       d="M 560.53802,132.2396 L 414.48234,132.2396 L 414.48234,144.08196 L 386.85018,144.08196 L 386.85018,163.81921 L 562.51174,163.81921 L 546.72194,153.95058 L 572.38037,150.00313 L 544.74821,142.10823 L 560.53802,132.2396 z "
       id="path1874" />
    <path
       id="path1876"
       d="M 242.76823,140.18705 L 404.61371,140.18705 L 402.50777,132.32758 L 242.76823,132.32758 L 242.76823,140.18705 z "
       style="fill:none;fill-rule:evenodd;stroke:black;stroke-width:1px;stroke-linecap:butt;stroke-linejoin:miter;stroke-opacity:1" />
    <path
       style="fill:none;fill-rule:evenodd;stroke:black;stroke-width:1px;stroke-linecap:butt;stroke-linejoin:miter;stroke-opacity:1"
       d="M 167.76666,631.59213 L 313.82234,631.59213 L 313.82234,643.43449 L 341.4545,643.43449 L 341.4545,663.17174 L 165.79293,663.17174 L 181.58274,653.30311 L 155.92431,649.35566 L 183.55647,641.46076 L 167.76666,631.59213 z "
       id="path1878" />
    <path
       id="path1880"
       d="M 639.48704,631.59213 L 493.43136,631.59213 L 493.43136,643.43449 L 465.7992,643.43449 L 465.7992,663.17174 L 641.46076,663.17174 L 625.67096,653.30311 L 651.32939,649.35566 L 623.69723,641.46076 L 639.48704,631.59213 z "
       style="fill:none;fill-rule:evenodd;stroke:black;stroke-width:1px;stroke-linecap:butt;stroke-linejoin:miter;stroke-opacity:1" />
    <path
       style="fill:none;fill-rule:evenodd;stroke:#000000;stroke-width:1px;stroke-linecap:butt;stroke-linejoin:miter;stroke-opacity:1"
       d="M 81.261546,286.16961 L 243.10703,286.16961 L 241.00109,278.31014 L 81.261546,278.31014 L 81.261546,286.16961 z"
       id="path1882" />
    <path
       sodipodi:nodetypes="ccccc"
       id="path1884"
       d="M 567.49456,323.33313 L 609.02012,323.33313 L 609.02012,326.70007 L 616.8763,326.70007 L 616.8763,332.31163"
       style="fill:none;fill-rule:evenodd;stroke:black;stroke-width:0.28431317px;stroke-linecap:butt;stroke-linejoin:miter;stroke-opacity:1" />
    <path
       sodipodi:nodetypes="cccccccccc"
       style="fill:none;fill-rule:evenodd;stroke:black;stroke-width:0.28431317px;stroke-linecap:butt;stroke-linejoin:miter;stroke-opacity:1"
       d="M 658.43794,326.70007 L 652.22914,326.70007 M 701.61088,323.33313 L 660.08533,323.33313 M 700.51857,329.07997 L 704.70724,328.31589 L 700.77915,327.19358 M 699.79911,332.31163 L 702.17204,332.31163 L 700.13035,330.97637"
       id="path1886" />
    <path
       sodipodi:nodetypes="cccccccccc"
       id="path1888"
       d="M 616.45293,326.6875 L 341.0625,642.84375 L 341.09375,642.84375 L 341.4375,643.1875 L 341.8125,643.53125 L 341.8125,643.5 L 342.71875,642.625 L 342.625,642.5625 L 616.79707,326.87024 L 616.45293,326.6875 z "
       style="fill:black;fill-opacity:1;fill-rule:evenodd;stroke:none;stroke-width:0.99862915px;stroke-linecap:butt;stroke-linejoin:miter;stroke-opacity:1" />
    <path
       sodipodi:nodetypes="ccccc"
       id="path1890"
       d="M 616.89519,331.98933 L 341.25,662.4375 L 342,663.0625 L 617,332.34375 L 616.89519,331.98933 z "
       style="fill:black;fill-opacity:1;fill-rule:evenodd;stroke:none;stroke-width:0.99810541px;stroke-linecap:butt;stroke-linejoin:miter;stroke-opacity:1" />
    <path
       sodipodi:nodetypes="ccccc"
       id="path1892"
       d="M 609.08308,326.42683 L 313.5,642.90625 L 314.25,643.59375 L 609.22428,326.8125 L 609.08308,326.42683 z "
       style="fill:black;fill-opacity:1;fill-rule:evenodd;stroke:none;stroke-width:1.00108922px;stroke-linecap:butt;stroke-linejoin:miter;stroke-opacity:1" />
    <path
       sodipodi:nodetypes="ccccc"
       id="path1894"
       d="M 608.86433,323.32793 L 313.5625,631.09375 L 314.3125,631.78125 L 609.04192,323.67721 L 608.86433,323.32793 z "
       style="fill:black;fill-opacity:1;fill-rule:evenodd;stroke:none;stroke-width:0.99793249px;stroke-linecap:butt;stroke-linejoin:miter;stroke-opacity:1" />
    <path
       sodipodi:nodetypes="ccccc"
       id="path1947"
       d="M 567.375,323.15625 L 166.90625,631.03125 L 167.53125,631.8125 L 567.83347,323.32871 L 567.375,323.15625 z "
       style="fill:black;fill-opacity:1;fill-rule:evenodd;stroke:none;stroke-width:1px;stroke-linecap:butt;stroke-linejoin:miter;stroke-opacity:1" />
    <path
       sodipodi:nodetypes="ccccc"
       id="path1973"
       d="M 652.20808,326.52058 L 465.34375,643.28125 L 466.21875,643.78125 L 652.40664,326.81764 L 652.20808,326.52058 z "
       style="fill:black;fill-opacity:1;fill-rule:evenodd;stroke:none;stroke-width:1.00582361px;stroke-linecap:butt;stroke-linejoin:miter;stroke-opacity:1" />
    <path
       sodipodi:nodetypes="ccccc"
       id="path1975"
       d="M 660.05697,323.25039 L 493.15625,631 L 494.03125,631.46875 L 660.39082,323.47981 L 660.05697,323.25039 z "
       style="fill:black;fill-opacity:1;fill-rule:evenodd;stroke:none;stroke-width:1.00032628px;stroke-linecap:butt;stroke-linejoin:miter;stroke-opacity:1" />
    <path
       sodipodi:nodetypes="ccccc"
       id="path1977"
       d="M 701.42091,323.34774 L 639.84375,631.375 L 640.8125,631.5625 L 701.84851,323.16062 L 701.42091,323.34774 z "
       style="fill:black;fill-opacity:1;fill-rule:evenodd;stroke:none;stroke-width:0.99230939px;stroke-linecap:butt;stroke-linejoin:miter;stroke-opacity:1" />
    <g
       id="g2613">
      <g
         id="g3205">
        <path
           sodipodi:nodetypes="ccccc"
           id="path2555"
           d="M611.814158093 324.845449455C611.814158093 324.845449455 657.227825449 324.853413972 657.227825449 324.853413972C657.227825449 324.853413972 488.738507329 631.687812187 488.738507329 631.687812187C488.738507329 631.687812187 323.766874312 631.679956371 323.766874312 631.679956371C323.766874312 631.679956371 611.814158093 324.845449455 611.814158093 324.845449455C611.814158093 324.845449455 611.814158093 324.845449455 611.814158093 324.845449455"
           style="fill:none;fill-rule:evenodd;stroke:#000000;stroke-width:0.70981449px;stroke-linecap:butt;stroke-linejoin:miter;stroke-opacity:1" />
      </g>
      <path
         style="fill:none;fill-rule:evenodd;stroke:#000000;stroke-width:0.78165627px;stroke-linecap:butt;stroke-linejoin:miter;stroke-opacity:1"
         d="M349.702157749 620.519504055C349.702157749 620.519504055 362.013025404 606.894700939 362.013025404 606.894700939C363.207296264 605.796043301 365.23551219 605.252528046 367.356181485 605.03974782C367.356181485 605.03974782 383.734871401 605.040709424 383.734871401 605.040709424C386.373501527 605.104673612 388.318751553 605.953062008 386.612870197 607.580765725C386.612870197 607.580765725 375.96668657 620.255121151 375.96668657 620.255121151C375.419135867 621.013044874 374.02075522 622.004009408 371.672600853 622.464006031C371.672600853 622.464006031 352.541132194 622.463021585 352.541132194 622.463021585C350.482079655 622.410873431 348.90691799 621.641799253 349.702157749 620.519504055C349.702157749 620.519504055 349.702157749 620.519504055 349.702157749 620.519504055"
         id="path2561"
         sodipodi:nodetypes="ccccccccc" />
      <path
         sodipodi:nodetypes="ccccccccc"
         id="path2563"
         d="M390.454900101 575.417232911C390.454900101 575.417232911 400.239542821 564.58827801 400.239542821 564.58827801C401.211758067 563.711599445 402.977287845 563.277741581 404.854074772 563.107887575C404.854074772 563.107887575 419.489832448 563.109002362 419.489832448 563.109002362C421.852807292 563.160135196 423.658837409 563.837459658 422.265551079 565.136001927C422.265551079 565.136001927 413.804944498 575.208412726 413.804944498 575.208412726C413.380094871 575.808568099 412.217811952 576.592871076 410.167373165 576.956767376C410.167373165 576.956767376 393.151834848 576.955569427 393.151834848 576.955569427C391.315920188 576.914272015 389.846784222 576.305698542 390.454900101 575.417232911C390.454900101 575.417232911 390.454900101 575.417232911 390.454900101 575.417232911"
         style="fill:none;fill-rule:evenodd;stroke:#000000;stroke-width:0.78165627px;stroke-linecap:butt;stroke-linejoin:miter;stroke-opacity:1" />
      <path
         sodipodi:nodetypes="ccccccccc"
         id="path2565"
         d="M423.122543707 539.262980841C423.122543707 539.262980841 431.085722205 530.449894529 431.085722205 530.449894529C431.895189607 529.734137571 433.456725849 529.379816018 435.139713609 529.241100302C435.139713609 529.241100302 448.367808307 529.242294392 448.367808307 529.242294392C450.507260314 529.284111423 452.189039463 529.837354238 451.025279682 530.897345612C451.025279682 530.897345612 444.140279769 539.093985747 444.140279769 539.093985747C443.802630741 539.580958148 442.814875088 540.217098032 440.996053009 540.512128097C440.996053009 540.512128097 425.675013695 540.510816968 425.675013695 540.510816968C424.018618792 540.477296601 422.646597147 539.983752262 423.122543707 539.262980841C423.122543707 539.262980841 423.122543707 539.262980841 423.122543707 539.262980841"
         style="fill:none;fill-rule:evenodd;stroke:#000000;stroke-width:0.78165627px;stroke-linecap:butt;stroke-linejoin:miter;stroke-opacity:1" />
      <path
         style="fill:none;fill-rule:evenodd;stroke:#000000;stroke-width:0.78165627px;stroke-linecap:butt;stroke-linejoin:miter;stroke-opacity:1"
         d="M449.89395664 509.634262493C449.89395664 509.634262493 456.500721208 502.322359791 456.500721208 502.322359791C457.187136298 501.726965253 458.585957748 501.432160544 460.111282803 501.316748885C460.111282803 501.316748885 472.178735564 501.317978509 472.178735564 501.317978509C474.13328937 501.352818464 475.704692222 501.813203855 474.714794603 502.69481384C474.714794603 502.69481384 469.002980695 509.494767902 469.002980695 509.494767902C468.729392056 509.897798593 467.874903004 510.424111565 466.241231335 510.668118485C466.241231335 510.668118485 452.307759581 510.666752964 452.307759581 510.666752964C450.798912467 510.638997504 449.514503202 510.230697186 449.89395664 509.634262493C449.89395664 509.634262493 449.89395664 509.634262493 449.89395664 509.634262493"
         id="path2567"
         sodipodi:nodetypes="ccccccccc" />
      <path
         sodipodi:nodetypes="ccccccccc"
         id="path2569"
         d="M472.233408966 484.910526669C472.233408966 484.910526669 477.80297712 478.746520064 477.80297712 478.746520064C478.39394104 478.243496703 479.66011562 477.994384731 481.054695744 477.896866127C481.054695744 477.896866127 492.148747108 477.898104747 492.148747108 477.898104747C493.947813388 477.927583782 495.421123346 478.316674268 494.56633684 479.06141516C494.56633684 479.06141516 489.751521649 484.79348603 489.751521649 484.79348603C489.526286077 485.132546675 488.776279605 485.575199493 487.293898981 485.780355462C487.293898981 485.780355462 474.517535503 485.778970947 474.517535503 485.778970947C473.132105547 485.755607388 471.926329408 485.412227965 472.233408966 484.910526669C472.233408966 484.910526669 472.233408966 484.910526669 472.233408966 484.910526669"
         style="fill:none;fill-rule:evenodd;stroke:#000000;stroke-width:0.78165627px;stroke-linecap:butt;stroke-linejoin:miter;stroke-opacity:1" />
      <path
         style="fill:none;fill-rule:evenodd;stroke:#000000;stroke-width:0.78165627px;stroke-linecap:butt;stroke-linejoin:miter;stroke-opacity:1"
         d="M491.157288917 463.966906304C491.157288917 463.966906304 495.916037058 458.700258306 495.916037058 458.700258306C496.431358294 458.269666323 497.587428954 458.056394639 498.871847236 457.972911983C498.871847236 457.972911983 509.137811346 457.974143315 509.137811346 457.974143315C510.804301835 457.999414053 512.190197893 458.332578069 511.44267803 458.970013956C511.44267803 458.970013956 507.329024513 463.867346992 507.329024513 463.867346992C507.141117968 464.156541853 506.47483918 464.534004022 505.118338228 464.708896614C505.118338228 464.708896614 493.321634637 464.70751476 493.321634637 464.70751476C492.04096209 464.687574155 490.905723469 464.394774814 491.157288917 463.966906304C491.157288917 463.966906304 491.157288917 463.966906304 491.157288917 463.966906304"
         id="path2571"
         sodipodi:nodetypes="ccccccccc" />
      <path
         style="fill:none;fill-rule:evenodd;stroke:#000000;stroke-width:0.78165627px;stroke-linecap:butt;stroke-linejoin:miter;stroke-opacity:1"
         d="M507.393297596 445.99803296C507.393297596 445.99803296 511.506213367 441.446146839 511.506213367 441.446146839C511.960490953 441.073398293 513.023771167 440.888755943 514.214115215 440.816485838C514.214115215 440.816485838 523.76702655 440.817699887 523.76702655 440.817699887C525.31913698 440.839606463 526.626842665 441.128092689 525.966042413 441.679847957C525.966042413 441.679847957 522.410835544 445.912346386 522.410835544 445.912346386C522.252301607 446.161918751 521.654366213 446.487597809 520.404200918 446.638458482C520.404200918 446.638458482 509.447620742 446.637092599 509.447620742 446.637092599C508.256979571 446.619871626 507.185127139 446.367244384 507.393297596 445.99803296C507.393297596 445.99803296 507.393297596 445.99803296 507.393297596 445.99803296"
         id="path2573"
         sodipodi:nodetypes="ccccccccc" />
      <path
         sodipodi:nodetypes="ccccccccc"
         id="path2575"
         d="M521.476123999 430.412150434C521.476123999 430.412150434 525.066288409 426.438808781 525.066288409 426.438808781C525.470528985 426.112985486 526.45459072 425.951573656 527.5636707 425.888401996C527.5636707 425.888401996 536.496150349 425.889592719 536.496150349 425.889592719C537.948571474 425.908767517 539.186045745 426.160998242 538.596454815 426.643254416C538.596454815 426.643254416 535.493238593 430.337654845 535.493238593 430.337654845C535.358196738 430.555223145 534.816931037 430.839087082 533.657755741 430.970547071C533.657755741 430.970547071 523.429592561 430.969205269 523.429592561 430.969205269C522.317157499 430.954181046 521.302427811 430.733989469 521.476123999 430.412150434C521.476123999 430.412150434 521.476123999 430.412150434 521.476123999 430.412150434"
         style="fill:none;fill-rule:evenodd;stroke:#000000;stroke-width:0.78165627px;stroke-linecap:butt;stroke-linejoin:miter;stroke-opacity:1" />
      <path
         style="fill:none;fill-rule:evenodd;stroke:#000000;stroke-width:0.78165627px;stroke-linecap:butt;stroke-linejoin:miter;stroke-opacity:1"
         d="M533.807435631 416.764721361C533.807435631 416.764721361 536.968531267 413.266242872 536.968531267 413.266242872C537.331197373 412.979010969 538.246868349 412.836707521 539.285049365 412.78101998C539.285049365 412.78101998 547.672773621 412.782183865 547.672773621 412.782183865C549.037537164 412.799110005 550.211660889 413.021516213 549.681339219 413.446622673C549.681339219 413.446622673 546.949091484 416.699382546 546.949091484 416.699382546C546.833105614 416.890730324 546.339471382 417.140343821 545.2590216 417.255916684C545.2590216 417.255916684 535.668458451 417.254603758 535.668458451 417.254603758C534.62459005 417.24137946 533.661511789 417.04775335 533.807435631 416.764721361C533.807435631 416.764721361 533.807435631 416.764721361 533.807435631 416.764721361"
         id="path2577"
         sodipodi:nodetypes="ccccccccc" />
      <path
         sodipodi:nodetypes="ccccccccc"
         id="path2579"
         d="M544.694901405 404.71523941C544.694901405 404.71523941 547.499491312 401.611316407 547.499491312 401.611316407C547.827201416 401.356204805 548.683252396 401.229808158 549.659038292 401.18035083C549.659038292 401.18035083 557.564631818 401.181486001 557.564631818 401.181486001C558.851715187 401.196538921 559.9684567 401.394115695 559.488054484 401.771660152C559.488054484 401.771660152 557.064022825 404.65748665 557.064022825 404.65748665C556.9636865 404.827083346 556.510562908 405.048290563 555.49888583 405.150689991C555.49888583 405.150689991 546.471095332 405.149408602 546.471095332 405.149408602C545.487832902 405.137677636 544.571624893 404.966082549 544.694901405 404.71523941C544.694901405 404.71523941 544.694901405 404.71523941 544.694901405 404.71523941"
         style="fill:none;fill-rule:evenodd;stroke:#000000;stroke-width:0.78165627px;stroke-linecap:butt;stroke-linejoin:miter;stroke-opacity:1" />
      <path
         sodipodi:nodetypes="ccccccccc"
         id="path2581"
         d="M554.378064125 393.998595441C554.378064125 393.998595441 556.883226188 391.226058132 556.883226188 391.226058132C557.181235152 390.997965564 557.98486653 390.884951292 558.905320068 390.840735421C558.905320068 390.840735421 566.381196357 390.841841076 566.381196357 390.841841076C567.598965476 390.855316966 568.663522857 391.032003102 568.225607448 391.369542763C568.225607448 391.369542763 566.060434022 393.947196741 566.060434022 393.947196741C565.97309022 394.098550877 565.554780343 394.295938309 564.603690035 394.387293484C564.603690035 394.387293484 556.076286177 394.386044901 556.076286177 394.386044901C555.146979105 394.375566625 554.273454198 394.222444357 554.378064125 393.998595441C554.378064125 393.998595441 554.378064125 393.998595441 554.378064125 393.998595441"
         style="fill:none;fill-rule:evenodd;stroke:#000000;stroke-width:0.78165627px;stroke-linecap:butt;stroke-linejoin:miter;stroke-opacity:1" />
      <path
         style="fill:none;fill-rule:evenodd;stroke:#000000;stroke-width:0.78165627px;stroke-linecap:butt;stroke-linejoin:miter;stroke-opacity:1"
         d="M563.046270287 384.40523406C563.046270287 384.40523406 565.297517467 381.913711898 565.297517467 381.913711898C565.570053454 381.708562791 566.327246436 381.606913651 567.198297015 381.567149098C567.198297015 381.567149098 574.28876321 381.568225132 574.28876321 381.568225132C575.444301682 381.580360797 576.461221779 381.739303917 576.059805373 382.042875813C576.059805373 382.042875813 574.114135205 384.35920964 574.114135205 384.35920964C574.03768264 384.495113812 573.649566769 384.672331215 572.75225085 384.754336086C572.75225085 384.754336086 564.672676509 384.753120666 564.672676509 384.753120666C563.791711858 384.743703561 562.957192174 384.606222916 563.046270287 384.40523406C563.046270287 384.40523406 563.046270287 384.40523406 563.046270287 384.40523406"
         id="path2583"
         sodipodi:nodetypes="ccccccccc" />
      <path
         sodipodi:nodetypes="ccccccccc"
         id="path2585"
         d="M570.851149727 375.767342021C570.851149727 375.767342021 572.885217409 373.516178864 572.885217409 373.516178864C573.135723232 373.330677935 573.851498629 373.238762612 574.678172195 373.202810379C574.678172195 373.202810379 581.421018788 373.203857144 581.421018788 373.203857144C582.52037721 373.214844183 583.493654843 373.358589855 583.123855875 373.63307471C583.123855875 373.63307471 581.365925504 375.725903006 581.365925504 375.725903006C581.298681804 375.848607593 580.936968449 376.008595469 580.087698062 376.082614529C580.087698062 376.082614529 572.411263308 376.081432034 572.411263308 376.081432034C571.57386063 376.072921772 570.775104415 375.948801939 570.851149727 375.767342021C570.851149727 375.767342021 570.851149727 375.767342021 570.851149727 375.767342021"
         style="fill:none;fill-rule:evenodd;stroke:#000000;stroke-width:0.78165627px;stroke-linecap:butt;stroke-linejoin:miter;stroke-opacity:1" />
      <path
         style="fill:none;fill-rule:evenodd;stroke:#000000;stroke-width:0.78165627px;stroke-linecap:butt;stroke-linejoin:miter;stroke-opacity:1"
         d="M577.915556162 367.948953463C577.915556162 367.948953463 579.762420671 365.904973622 579.762420671 365.904973622C579.993729824 365.736427689 580.67234201 365.652912731 581.458935564 365.620250479C581.458935564 365.620250479 587.88665485 365.621268619 587.88665485 365.621268619C588.935042386 365.631263724 589.868202754 365.761892833 589.525998751 366.011279225C589.525998751 366.011279225 587.929890126 367.91145761 587.929890126 367.91145761C587.870493362 368.022796266 587.532037085 368.167950149 586.725949341 368.2350948C586.725949341 368.2350948 579.414335624 368.23394461 579.414335624 368.23394461C578.616390072 368.226215443 577.850529461 368.113598458 577.915556162 367.948953463C577.915556162 367.948953463 577.915556162 367.948953463 577.915556162 367.948953463"
         id="path2587"
         sodipodi:nodetypes="ccccccccc" />
      <path
         style="fill:none;fill-rule:evenodd;stroke:#000000;stroke-width:0.78165627px;stroke-linecap:butt;stroke-linejoin:miter;stroke-opacity:1"
         d="M584.34009606 360.838724219C584.34009606 360.838724219 586.024460422 358.974588119 586.024460422 358.974588119C586.238927538 358.820774629 586.884011958 358.744559449 587.63422785 358.714756053C587.63422785 358.714756053 593.7749598 358.715746393 593.7749598 358.715746393C594.776893226 358.724878955 595.673060291 358.844109082 595.355104575 359.071688324C595.355104575 359.071688324 593.89945989 360.804643415 593.89945989 360.804643415C593.846796517 360.906125237 593.528962474 361.038416313 592.761894831 361.099600928C592.761894831 361.099600928 585.781999143 361.098482182 585.781999143 361.098482182C585.019959941 361.091430614 584.284448422 360.988787734 584.34009606 360.838724219C584.34009606 360.838724219 584.34009606 360.838724219 584.34009606 360.838724219"
         id="path2589"
         sodipodi:nodetypes="ccccccccc" />
      <path
         sodipodi:nodetypes="ccccccccc"
         id="path2591"
         d="M590.207946401 354.344599853C590.207946401 354.344599853 591.750350765 352.637575102 591.750350765 352.637575102C591.949949756 352.496643659 592.56463675 352.426811848 593.281687422 352.399508322C593.281687422 352.399508322 599.159963491 352.400471792 599.159963491 352.400471792C600.119384646 352.408849603 600.981338071 352.518110977 600.684821758 352.726623063C600.684821758 352.726623063 599.35188301 354.313495885 599.35188301 354.313495885C599.305034324 354.406374161 599.00559597 354.527439223 598.273958305 354.58342294C598.273958305 354.58342294 591.596988076 354.58233463 591.596988076 354.58233463C590.867763133 354.575874704 590.16033124 354.481936595 590.207946401 354.344599853C590.207946401 354.344599853 590.207946401 354.344599853 590.207946401 354.344599853"
         style="fill:none;fill-rule:evenodd;stroke:#000000;stroke-width:0.78165627px;stroke-linecap:butt;stroke-linejoin:miter;stroke-opacity:1" />
      <path
         style="fill:none;fill-rule:evenodd;stroke:#000000;stroke-width:0.78165627px;stroke-linecap:butt;stroke-linejoin:miter;stroke-opacity:1"
         d="M595.588450778 348.389835748C595.588450778 348.389835748 597.006114131 346.820865582 597.006114131 346.820865582C597.192513071 346.691263158 597.779516896 346.627045494 598.466207687 346.601940508C598.466207687 346.601940508 604.103543213 346.602878097 604.103543213 346.602878097C605.023912711 346.610591677 605.854135548 346.711084879 605.576682178 346.902829314C605.576682178 346.902829314 604.351563177 348.361341979 604.351563177 348.361341979C604.309764955 348.4466662 604.026825681 348.557875689 603.3275001 348.609294021C603.3275001 348.609294021 596.92825515 348.608235059 596.92825515 348.608235059C596.229135237 348.602294789 595.547753063 348.515998726 595.588450778 348.389835748C595.588450778 348.389835748 595.588450778 348.389835748 595.588450778 348.389835748"
         id="path2593"
         sodipodi:nodetypes="ccccccccc" />
      <path
         sodipodi:nodetypes="ccccccccc"
         id="path2595"
         d="M600.53990221 342.90991729C600.53990221 342.90991729 601.847367301 341.462906815 601.847367301 341.462906815C602.021986141 341.343320347 602.583675187 341.284066398 603.242470236 341.260905156C603.242470236 341.260905156 608.657839083 341.261817872 608.657839083 341.261817872C609.54221153 341.268943799 610.34293005 341.361684058 610.082514306 341.538604923C610.082514306 341.538604923 608.952642916 342.883724647 608.952642916 342.883724647C608.915254656 342.962380298 608.647187128 343.064890345 607.977448866 343.112279349C607.977448866 343.112279349 601.83374802 343.111248612 601.83374802 343.111248612C601.162346111 343.105767254 600.505191765 343.026216737 600.53990221 342.90991729C600.53990221 342.90991729 600.53990221 342.90991729 600.53990221 342.90991729"
         style="fill:none;fill-rule:evenodd;stroke:#000000;stroke-width:0.78165627px;stroke-linecap:butt;stroke-linejoin:miter;stroke-opacity:1" />
      <path
         sodipodi:nodetypes="ccccccccc"
         id="path2597"
         d="M605.11165671 337.850220711C605.11165671 337.850220711 606.32129042 336.511483133 606.32129042 336.511483133C606.485346045 336.400794908 607.023798907 336.345950959 607.656874269 336.324516555C607.656874269 336.324516555 612.867093794 336.325405405 612.867093794 336.325405405C613.718178879 336.332008898 614.491396137 336.417860527 614.24628035 336.581612576C614.24628035 336.581612576 613.200965767 337.826066836 613.200965767 337.826066836C613.167446951 337.898806224 612.912845558 337.993598952 612.270299717 338.037413946C612.270299717 338.037413946 606.36251726 338.036410304 606.36251726 338.036410304C605.71671941 338.031336244 605.08215227 337.957769731 605.11165671 337.850220711C605.11165671 337.850220711 605.11165671 337.850220711 605.11165671 337.850220711"
         style="fill:none;fill-rule:evenodd;stroke:#000000;stroke-width:0.78165627px;stroke-linecap:butt;stroke-linejoin:miter;stroke-opacity:1" />
      <path
         style="fill:none;fill-rule:evenodd;stroke:#000000;stroke-width:0.78165627px;stroke-linecap:butt;stroke-linejoin:miter;stroke-opacity:1"
         d="M609.345776527 333.16419447C609.345776527 333.16419447 610.468162163 331.922016929 610.468162163 331.922016929C610.622703921 331.819269556 611.139754634 331.768361279 611.74904149 331.748467903C611.74904149 331.748467903 616.769087552 331.749333876 616.769087552 331.749333876C617.589300115 331.755470832 618.33682436 331.835174267 618.105508399 331.987174826C618.105508399 331.987174826 617.135601906 333.141855231 617.135601906 333.141855231C617.105493485 333.209321613 616.86313666 333.297236692 616.245667126 333.337866903C616.245667126 333.337866903 610.556354608 333.336889242 610.556354608 333.336889242C609.934279811 333.33217834 609.320817772 333.263944769 609.345776527 333.16419447C609.345776527 333.16419447 609.345776527 333.16419447 609.345776527 333.16419447"
         id="path2599"
         sodipodi:nodetypes="ccccccccc" />
      <path
         style="fill:none;fill-rule:evenodd;stroke:#000000;stroke-width:0.78165627px;stroke-linecap:butt;stroke-linejoin:miter;stroke-opacity:1"
         d="M613.278329473 328.811921248C613.278329473 328.811921248 614.322577142 327.656221317 614.322577142 327.656221317C614.468515118 327.560589976 614.965789923 327.513208694 615.553009984 327.494696257C615.553009984 327.494696257 620.396276469 327.495540314 620.396276469 327.495540314C621.187777799 327.501258913 621.911246598 327.575452141 621.692427959 327.716922218C621.692427959 327.716922218 620.790054536 328.791204036 620.790054536 328.791204036C620.762964356 328.853950691 620.531784455 328.935710261 619.937512309 328.973490398C619.937512309 328.973490398 614.451087825 328.972537632 614.451087825 328.972537632C613.85105499 328.968151914 613.257355064 328.904691368 613.278329473 328.811921248C613.278329473 328.811921248 613.278329473 328.811921248 613.278329473 328.811921248"
         id="path2609"
         sodipodi:nodetypes="ccccccccc" />
    </g>
    <path
       style="fill:none;fill-rule:evenodd;stroke:#000000;stroke-width:1px;stroke-linecap:butt;stroke-linejoin:miter;stroke-opacity:1"
       d="M 324.69176,631.88808 L 324.69176,639.83971 L 488.58378,639.83971 L 488.58378,631.88808"
       id="path3201"
       sodipodi:nodetypes="cccc" />
    <path
       style="fill:none;fill-rule:evenodd;stroke:#000000;stroke-width:1px;stroke-linecap:butt;stroke-linejoin:miter;stroke-opacity:1"
       d="M 489.02554,639.83971 L 494.32663,628.79578 L 494.32663,628.79578"
       id="path3203" />
  </g>
</svg>
